<svg
	xmlns="http://www.w3.org/2000/svg"
	aria-hidden="true"
	style="position: absolute; width: 0; height: 0; overflow: hidden"
>
	<defs>
		<symbol id="icon-arrow-down" viewBox="0 0 24 24">
			<path
				d="M18.414 10.656c-0.781-0.781-2.047-0.781-2.828 0l-1.586 1.586v-7.242c0-1.105-0.896-2-2-2-1.105 0-2 0.895-2 2v7.242l-1.586-1.586c-0.781-0.781-2.047-0.781-2.828 0s-0.781 2.047 0 2.828l6.414 6.414 6.414-6.414c0.781-0.781 0.781-2.046 0-2.828z"
			></path>
		</symbol>
		<symbol id="icon-telegram" viewBox="0 0 32 32">
			<path
				fill="#1b92d1"
				d="M28.391 3.885c-3.937 1.631-20.82 8.624-25.484 10.53C-.221 15.636 1.61 16.78 1.61 16.78s2.67.916 4.96 1.602c2.289.687 3.51-.076 3.51-.076l10.758-7.249c3.815-2.594 2.9-.458 1.984.458-1.984 1.984-5.265 5.112-8.012 7.63-1.221 1.068-.611 1.984-.076 2.442 1.984 1.679 7.401 5.112 7.706 5.341 1.612 1.141 4.782 2.784 5.265-.687l1.908-11.979c.611-4.044 1.221-7.783 1.297-8.851.229-2.595-2.518-1.526-2.518-1.526z"
				style="fill: var(--color1, #1b92d1)"
			/>
		</symbol>
		<symbol id="icon-viber" viewBox="0 0 32 32">
			<path
				fill="#7b519c"
				d="M16 0C8.1 0 0 1.7 0 14c0 6.6 2.3 10.7 7 12.6v3.7c0 .7.4 1.3 1 1.6.2.1.5.1.7.1.4 0 .9-.2 1.2-.5l3.6-3.6c.8 0 1.6.1 2.5.1 7.9 0 16-1.7 16-14S23.9 0 16 0z"
				style="fill: var(--color2, #7b519c)"
			/>
			<path
				fill="#fff"
				d="M15.5 9.1c2.4 0 4.4 2 4.4 4.4 0 .6.4 1 1 1s1-.4 1-1c0-3.5-2.9-6.4-6.4-6.4-.6 0-1 .4-1 1s.4 1 1 1z"
				style="fill: var(--color3, #fff)"
			/>
			<path
				fill="#fff"
				d="M15.5 12.2c.7 0 1.3.6 1.3 1.3 0 .6.4 1 1 1s1-.4 1-1c0-1.8-1.5-3.3-3.3-3.3-.6 0-1 .4-1 1s.4 1 1 1zM15.5 4c-.6 0-1 .4-1 1s.4 1 1 1c4.1 0 7.5 3.4 7.5 7.5 0 .6.4 1 1 1s1-.4 1-1C25 8.3 20.7 4 15.5 4z"
				style="fill: var(--color3, #fff)"
			/>
			<path
				fill="#fff"
				d="m21.9 17.1-.2-.1s-2.2-1.1-2.6-1.2c-.8-.3-1.6-.1-2.1.6l-.1.2c-.2.3-.5.7-.7.9-.5-.2-1.4-.6-2.6-1.6-.8-.7-1.4-1.6-1.7-2.1l.2-.2.3-.3c.1-.1.3-.4.5-.7.2-.5.2-1 0-1.6-.1-.2-.5-1.1-.8-1.8l-.4-.8c-.4-1-1-1.2-1.7-1.2-.1-.2-.2-.2-.4-.2-.8 0-1.5.3-2 .8S6 9.4 6 11.6c0 1.8 1.1 3.5 1.7 4.4l.1.1c1.9 2.8 4.3 4.8 6.7 5.8 2.1.9 3.3 1.1 4.1 1.1.4 0 .7 0 .9-.1 1.3-.3 2.8-1.2 3.2-2.4.2-.7.5-1.9.1-2.6-.2-.4-.6-.6-.9-.8z"
				style="fill: var(--color3, #fff)"
			/>
		</symbol>
		<symbol id="icon-whatsapp" viewBox="0 0 32 32">
			<path
				fill="#25d366"
				d="M17 0C8.7 0 2 6.7 2 15c0 3.4 1.1 6.6 3.2 9.2l-2.1 6.4c-.1.4 0 .8.3 1.1.1.2.4.3.6.3.1 0 .3 0 .4-.1l6.9-3.1c1.8.8 3.7 1.2 5.7 1.2 8.3 0 15-6.7 15-15S25.3 0 17 0z"
				style="fill: var(--color4, #25d366)"
			/>
			<path
				fill="#fff"
				d="M25.7 20.5c-.4 1.2-1.9 2.2-3.2 2.4-.3.1-.6.1-1 .1-.8 0-2-.2-4.1-1.1-2.4-1-4.8-3.1-6.7-5.8V16c-.6-.9-1.7-2.6-1.7-4.4 0-2.2 1.1-3.3 1.5-3.8.5-.5 1.2-.8 2-.8h.5c.7 0 1.2.2 1.7 1.2l.4.8c.3.8.7 1.7.8 1.8.3.6.3 1.1 0 1.6-.1.3-.3.5-.5.7-.1.2-.2.3-.3.3l-.2.2c.3.5.9 1.4 1.7 2.1 1.2 1.1 2.1 1.4 2.6 1.6.2-.2.4-.6.7-.9l.1-.2c.5-.7 1.3-.9 2.1-.6.4.2 2.6 1.2 2.6 1.2l.2.1c.3.2.7.3.9.7.4.9.1 2.2-.1 2.9z"
				style="fill: var(--color3, #fff)"
			/>
		</symbol>
	</defs>
</svg>
